<svg width="19" height="23" viewBox="0 0 19 23" fill="none" xmlns="http://www.w3.org/2000/svg">
<path d="M18.5113 16.592C18.0633 17.7867 17.4233 18.8213 16.5913 19.696C15.7593 20.5493 14.7779 21.2 13.6473 21.648C12.5379 22.096 11.3219 22.32 9.99925 22.32C7.99392 22.32 6.25525 21.8827 4.78325 21.008C3.33258 20.112 2.20192 18.8533 1.39125 17.232C0.601917 15.6107 0.20725 13.68 0.20725 11.44C0.20725 9.2 0.601917 7.26933 1.39125 5.648C2.20192 4.02667 3.33258 2.77867 4.78325 1.904C6.25525 1.008 7.97258 0.559999 9.93525 0.559999C11.3006 0.559999 12.5166 0.752 13.5833 1.136C14.6499 1.49867 15.5566 2.05333 16.3033 2.8C17.0713 3.52533 17.6793 4.42133 18.1273 5.488L15.5993 6.672C15.1299 5.456 14.4473 4.53867 13.5513 3.92C12.6766 3.28 11.5353 2.96 10.1273 2.96C8.69792 2.96 7.43925 3.30133 6.35125 3.984C5.26325 4.64533 4.40992 5.60533 3.79125 6.864C3.19392 8.12267 2.89525 9.648 2.89525 11.44C2.89525 13.2107 3.18325 14.736 3.75925 16.016C4.33525 17.2747 5.15658 18.2453 6.22325 18.928C7.28992 19.5893 8.54858 19.92 9.99925 19.92C11.4073 19.92 12.6339 19.568 13.6793 18.864C14.7246 18.1387 15.4819 17.0613 15.9513 15.632L18.5113 16.592Z" fill="white"/>
</svg>
