<svg width="17" height="18" viewBox="0 0 17 18" fill="none" xmlns="http://www.w3.org/2000/svg">
<path d="M16.0181 7.672V10.072H0.466125V7.672H16.0181ZM8.24213 13.08C8.86079 13.08 9.36213 13.272 9.74613 13.656C10.1301 14.04 10.3221 14.5413 10.3221 15.16C10.3221 15.7787 10.1301 16.28 9.74613 16.664C9.36213 17.048 8.86079 17.24 8.24213 17.24C7.62346 17.24 7.12213 17.048 6.73813 16.664C6.35413 16.28 6.16213 15.7787 6.16213 15.16C6.16213 14.5413 6.35413 14.04 6.73813 13.656C7.12213 13.272 7.62346 13.08 8.24213 13.08ZM8.24213 0.567999C8.86079 0.567999 9.36213 0.759999 9.74613 1.144C10.1301 1.528 10.3221 2.02933 10.3221 2.648C10.3221 3.26667 10.1301 3.768 9.74613 4.152C9.36213 4.536 8.86079 4.728 8.24213 4.728C7.62346 4.728 7.12213 4.536 6.73813 4.152C6.35413 3.768 6.16213 3.26667 6.16213 2.648C6.16213 2.02933 6.35413 1.528 6.73813 1.144C7.12213 0.759999 7.62346 0.567999 8.24213 0.567999Z" fill="white"/>
</svg>
