<svg width="16" height="23" viewBox="0 0 16 23" fill="none" xmlns="http://www.w3.org/2000/svg">
<path d="M7.74663 0.591999C9.11196 0.591999 10.296 0.815999 11.2986 1.264C12.3013 1.712 13.08 2.352 13.6346 3.184C14.1893 3.99467 14.4666 4.976 14.4666 6.128C14.4666 7.216 14.2 8.176 13.6666 9.008C13.1546 9.81867 12.4293 10.4373 11.4906 10.864V10.896C12.6853 11.344 13.6346 12.0267 14.3386 12.944C15.064 13.8613 15.4266 14.9813 15.4266 16.304C15.4266 17.5413 15.1066 18.608 14.4666 19.504C13.8266 20.4 12.9306 21.0933 11.7786 21.584C10.648 22.0747 9.30396 22.32 7.74663 22.32C6.21063 22.32 4.86663 22.0747 3.71463 21.584C2.56263 21.0933 1.66663 20.4 1.02663 19.504C0.386625 18.608 0.0666251 17.5413 0.0666251 16.304C0.0666251 15.0027 0.418625 13.8933 1.12263 12.976C1.82663 12.0373 2.79729 11.344 4.03463 10.896V10.864C3.11729 10.4587 2.38129 9.85067 1.82663 9.04C1.29329 8.208 1.02663 7.23733 1.02663 6.128C1.02663 4.976 1.30396 3.99467 1.85863 3.184C2.41329 2.352 3.19196 1.712 4.19463 1.264C5.21863 0.815999 6.40263 0.591999 7.74663 0.591999ZM7.74663 2.992C6.50929 2.992 5.51729 3.29067 4.77063 3.888C4.04529 4.48533 3.68263 5.31733 3.68263 6.384C3.68263 7.42933 4.05596 8.25067 4.80263 8.848C5.54929 9.44533 6.53063 9.744 7.74663 9.744C8.96263 9.744 9.94396 9.44533 10.6906 8.848C11.4373 8.25067 11.8106 7.42933 11.8106 6.384C11.8106 5.31733 11.448 4.48533 10.7226 3.888C9.99729 3.29067 9.00529 2.992 7.74663 2.992ZM7.74663 19.92C8.79196 19.92 9.68796 19.7707 10.4346 19.472C11.1813 19.152 11.7573 18.704 12.1626 18.128C12.568 17.5307 12.7706 16.8373 12.7706 16.048C12.7706 15.2373 12.5573 14.544 12.1306 13.968C11.7253 13.3707 11.1493 12.9227 10.4026 12.624C9.65596 12.304 8.77063 12.144 7.74663 12.144C6.74396 12.144 5.85863 12.304 5.09063 12.624C4.34396 12.9227 3.75729 13.3707 3.33063 13.968C2.92529 14.544 2.72263 15.2373 2.72263 16.048C2.72263 16.8373 2.92529 17.5307 3.33063 18.128C3.73596 18.704 4.31196 19.152 5.05863 19.472C5.82663 19.7707 6.72263 19.92 7.74663 19.92Z" fill="white"/>
</svg>
