<svg width="16" height="23" viewBox="0 0 16 23" fill="none" xmlns="http://www.w3.org/2000/svg">
<path d="M7.6215 22.32C5.74417 22.32 4.2295 21.8933 3.0775 21.04C1.94683 20.1867 1.07217 19.0027 0.4535 17.488L2.9495 16.176C3.29083 17.2853 3.8135 18.192 4.5175 18.896C5.24283 19.5787 6.29883 19.92 7.6855 19.92C8.66683 19.92 9.49883 19.7387 10.1815 19.376C10.8855 19.0133 11.4295 18.5013 11.8135 17.84C12.1975 17.1573 12.3895 16.3467 12.3895 15.408C12.3895 14.4053 12.2082 13.5733 11.8455 12.912C11.5042 12.2293 11.0028 11.7173 10.3415 11.376C9.68017 11.0347 8.8695 10.864 7.9095 10.864C7.22683 10.864 6.58683 10.9387 5.9895 11.088C5.4135 11.216 4.89083 11.4293 4.4215 11.728C3.95217 12.0267 3.54683 12.4213 3.2055 12.912L0.9655 12.496L2.2135 0.879999H14.0855V3.28H4.3895L3.5575 9.936L3.4935 10.224H3.5575C4.0695 9.69067 4.72017 9.264 5.5095 8.944C6.32017 8.624 7.28017 8.464 8.3895 8.464C9.7335 8.464 10.8962 8.752 11.8775 9.328C12.8802 9.88267 13.6588 10.672 14.2135 11.696C14.7682 12.72 15.0455 13.9147 15.0455 15.28C15.0455 16.368 14.8642 17.3493 14.5015 18.224C14.1388 19.0987 13.6268 19.8453 12.9655 20.464C12.3042 21.0613 11.5148 21.52 10.5975 21.84C9.7015 22.16 8.7095 22.32 7.6215 22.32Z" fill="white"/>
</svg>
