<svg width="17" height="23" viewBox="0 0 17 23" fill="none" xmlns="http://www.w3.org/2000/svg">
<path d="M8.129 0.559999C9.89967 0.559999 11.393 1.02933 12.609 1.968C13.825 2.88533 14.7423 4.16533 15.361 5.808C15.9797 7.42933 16.289 9.30667 16.289 11.44C16.289 13.808 15.9797 15.8027 15.361 17.424C14.7423 19.024 13.825 20.24 12.609 21.072C11.4143 21.904 9.93167 22.32 8.161 22.32C6.41167 22.32 4.90767 21.9147 3.649 21.104C2.39033 20.2933 1.45167 19.1093 0.833 17.552L3.361 16.208C3.70233 17.3173 4.257 18.2133 5.025 18.896C5.81433 19.5787 6.89167 19.92 8.257 19.92C9.36633 19.92 10.2837 19.7067 11.009 19.28C11.7557 18.832 12.3423 18.2027 12.769 17.392C13.1957 16.56 13.4943 15.568 13.665 14.416C13.857 13.264 13.953 11.984 13.953 10.576C13.953 10.5333 13.953 10.4907 13.953 10.448C13.953 10.384 13.953 10.3307 13.953 10.288H13.825C13.569 11.248 13.121 12.0267 12.481 12.624C11.841 13.2 11.1157 13.616 10.305 13.872C9.51567 14.128 8.72633 14.256 7.937 14.256C6.55033 14.256 5.32367 13.9893 4.257 13.456C3.19033 12.9013 2.35833 12.1333 1.761 11.152C1.16367 10.1707 0.865 9.008 0.865 7.664C0.865 6.21333 1.153 4.96533 1.729 3.92C2.305 2.85333 3.137 2.032 4.225 1.456C5.313 0.858666 6.61433 0.559999 8.129 0.559999ZM8.161 3.024C6.66767 3.024 5.52633 3.44 4.737 4.272C3.94767 5.08267 3.553 6.224 3.553 7.696C3.553 8.95467 3.969 9.95733 4.801 10.704C5.633 11.4293 6.753 11.792 8.161 11.792C9.07833 11.792 9.87833 11.6107 10.561 11.248C11.265 10.864 11.809 10.352 12.193 9.712C12.577 9.05067 12.769 8.29333 12.769 7.44C12.769 6.544 12.577 5.76533 12.193 5.104C11.809 4.44267 11.265 3.93067 10.561 3.568C9.87833 3.20533 9.07833 3.024 8.161 3.024Z" fill="white"/>
</svg>
