<svg width="17" height="23" viewBox="0 0 17 23" fill="none" xmlns="http://www.w3.org/2000/svg">
<path d="M9.10163 0.559999C10.2323 0.559999 11.2136 0.719999 12.0456 1.04C12.899 1.33867 13.635 1.81867 14.2536 2.48C14.8723 3.12 15.395 3.96267 15.8216 5.008L13.4536 6.128C13.1336 5.14667 12.611 4.37867 11.8856 3.824C11.1816 3.248 10.2003 2.96 8.94163 2.96C8.02429 2.96 7.21363 3.19467 6.50963 3.664C5.80563 4.112 5.20829 4.74133 4.71763 5.552C4.22696 6.36267 3.85363 7.312 3.59763 8.4C3.36296 9.488 3.24563 10.6613 3.24563 11.92C3.24563 11.9627 3.24563 12.0267 3.24563 12.112C3.24563 12.1973 3.24563 12.3253 3.24563 12.496H3.37363C3.60829 11.5787 4.03496 10.8427 4.65363 10.288C5.29363 9.712 6.00829 9.296 6.79763 9.04C7.60829 8.76267 8.39763 8.624 9.16563 8.624C10.595 8.624 11.843 8.90133 12.9096 9.456C13.9763 10.0107 14.7976 10.8 15.3736 11.824C15.971 12.848 16.2696 14.064 16.2696 15.472C16.2696 16.8587 15.971 18.0747 15.3736 19.12C14.7763 20.144 13.9336 20.9333 12.8456 21.488C11.779 22.0427 10.499 22.32 9.00563 22.32C7.23496 22.32 5.74163 21.8507 4.52563 20.912C3.30963 19.9733 2.39229 18.6933 1.77363 17.072C1.15496 15.4293 0.845625 13.552 0.845625 11.44C0.845625 9.072 1.20829 7.088 1.93363 5.488C2.65896 3.86667 3.64029 2.64 4.87763 1.808C6.13629 0.975999 7.54429 0.559999 9.10163 0.559999ZM8.97363 11.088C8.05629 11.088 7.24563 11.28 6.54163 11.664C5.85896 12.0267 5.32563 12.5387 4.94163 13.2C4.55763 13.84 4.36563 14.5867 4.36563 15.44C4.36563 16.2507 4.56829 16.9973 4.97363 17.68C5.37896 18.3413 5.92296 18.8747 6.60563 19.28C7.30963 19.664 8.09896 19.856 8.97363 19.856C10.4243 19.856 11.555 19.472 12.3656 18.704C13.1763 17.9147 13.5816 16.8267 13.5816 15.44C13.5816 14.544 13.4003 13.776 13.0376 13.136C12.675 12.4747 12.1523 11.9733 11.4696 11.632C10.787 11.2693 9.95496 11.088 8.97363 11.088Z" fill="white"/>
</svg>
