<svg width="16" height="23" viewBox="0 0 16 23" fill="none" xmlns="http://www.w3.org/2000/svg">
<path d="M8.45188 22.32C6.57454 22.32 4.91054 21.8827 3.45988 21.008C2.03054 20.112 1.05988 18.8853 0.547875 17.328L3.10788 16.016C3.36388 16.8053 3.71588 17.4987 4.16388 18.096C4.61188 18.672 5.19854 19.12 5.92388 19.44C6.67054 19.76 7.59854 19.92 8.70788 19.92C9.64654 19.92 10.4359 19.7493 11.0759 19.408C11.7159 19.0667 12.2065 18.608 12.5479 18.032C12.8892 17.4347 13.0599 16.752 13.0599 15.984C13.0599 15.216 12.9105 14.576 12.6119 14.064C12.3345 13.552 11.8865 13.1787 11.2679 12.944C10.6492 12.688 9.83854 12.56 8.83588 12.56C8.60121 12.56 8.34521 12.5707 8.06788 12.592C7.79054 12.592 7.50254 12.6133 7.20388 12.656V10.096C7.39588 10.1173 7.57721 10.128 7.74788 10.128C7.93988 10.128 8.11054 10.128 8.25988 10.128C9.81721 10.128 10.9265 9.82933 11.5879 9.232C12.2492 8.61333 12.5799 7.65333 12.5799 6.352C12.5799 5.24267 12.2385 4.4 11.5559 3.824C10.8732 3.248 9.90254 2.96 8.64388 2.96C7.29988 2.96 6.27588 3.25867 5.57188 3.856C4.86788 4.432 4.31321 5.22133 3.90788 6.224L1.47588 5.072C1.81721 4.176 2.32921 3.38667 3.01188 2.704C3.69454 2.02133 4.51588 1.488 5.47588 1.104C6.45721 0.719999 7.53454 0.528 8.70788 0.528C10.1799 0.528 11.3959 0.784 12.3559 1.296C13.3159 1.78667 14.0305 2.448 14.4999 3.28C14.9905 4.112 15.2359 5.02933 15.2359 6.032C15.2359 6.8 15.1292 7.49333 14.9159 8.112C14.7025 8.70933 14.4039 9.232 14.0199 9.68C13.6572 10.128 13.2412 10.4907 12.7719 10.768C12.3025 11.024 11.8012 11.1947 11.2679 11.28V11.344C11.9719 11.3653 12.5905 11.504 13.1239 11.76C13.6785 12.016 14.1479 12.3573 14.5319 12.784C14.9159 13.2107 15.2039 13.7013 15.3959 14.256C15.6092 14.7893 15.7159 15.3547 15.7159 15.952C15.7159 17.1893 15.4065 18.288 14.7879 19.248C14.1905 20.208 13.3479 20.9653 12.2599 21.52C11.1719 22.0533 9.90254 22.32 8.45188 22.32Z" fill="white"/>
</svg>
