<svg width="15" height="22" viewBox="0 0 15 22" fill="none" xmlns="http://www.w3.org/2000/svg">
<path d="M0.789875 22V19.92C2.90188 18.3627 4.66188 16.9973 6.06988 15.824C7.49921 14.6507 8.64054 13.584 9.49388 12.624C10.3472 11.664 10.9552 10.7573 11.3179 9.904C11.6805 9.02933 11.8619 8.12267 11.8619 7.184C11.8619 5.92533 11.4565 4.912 10.6459 4.144C9.85654 3.35467 8.76854 2.96 7.38188 2.96C5.93121 2.96 4.76854 3.44 3.89388 4.4C3.01921 5.33867 2.50721 6.59733 2.35788 8.176L0.117875 6.832C0.309875 5.59467 0.704542 4.50667 1.30188 3.568C1.92054 2.62933 2.74188 1.89333 3.76588 1.36C4.81121 0.826666 6.04854 0.559999 7.47788 0.559999C8.56588 0.559999 9.53654 0.719999 10.3899 1.04C11.2645 1.36 12.0112 1.81867 12.6299 2.416C13.2485 2.992 13.7179 3.68533 14.0379 4.496C14.3792 5.30667 14.5499 6.20267 14.5499 7.184C14.5499 8.50667 14.2299 9.808 13.5899 11.088C12.9499 12.3467 11.8939 13.6693 10.4219 15.056C8.94988 16.4427 6.95521 17.9787 4.43788 19.664V19.696C4.67254 19.6747 4.99254 19.664 5.39788 19.664C5.82454 19.6427 6.24054 19.632 6.64587 19.632C7.07254 19.6107 7.39254 19.6 7.60588 19.6H14.9979V22H0.789875Z" fill="white"/>
</svg>
