<svg width="17" height="23" viewBox="0 0 17 23" fill="none" xmlns="http://www.w3.org/2000/svg">
<path d="M8.74888 22.32C6.35954 22.32 4.45021 21.392 3.02087 19.536C1.59154 17.68 0.876875 14.9813 0.876875 11.44C0.876875 7.89867 1.59154 5.2 3.02087 3.344C4.45021 1.488 6.35954 0.559999 8.74888 0.559999C11.1595 0.559999 13.0689 1.488 14.4769 3.344C15.9062 5.2 16.6209 7.89867 16.6209 11.44C16.6209 14.9813 15.9062 17.68 14.4769 19.536C13.0689 21.392 11.1595 22.32 8.74888 22.32ZM8.74888 20.016C9.87954 20.016 10.8289 19.696 11.5969 19.056C12.3862 18.3947 12.9729 17.424 13.3569 16.144C13.7622 14.864 13.9649 13.296 13.9649 11.44C13.9649 9.584 13.7622 8.016 13.3569 6.736C12.9729 5.456 12.3862 4.496 11.5969 3.856C10.8289 3.19467 9.87954 2.864 8.74888 2.864C7.61821 2.864 6.65821 3.19467 5.86888 3.856C5.10088 4.496 4.51421 5.456 4.10888 6.736C3.72488 8.016 3.53288 9.584 3.53288 11.44C3.53288 13.296 3.72488 14.864 4.10888 16.144C4.51421 17.424 5.10088 18.3947 5.86888 19.056C6.65821 19.696 7.61821 20.016 8.74888 20.016Z" fill="white"/>
</svg>
